<?xml version="1.0"?>
<svg xmlns="http://www.w3.org/2000/svg" version="1" viewBox="0 0 24 24" enable-background="new 0 0 24 24">
    <path d="M 12 3 C 9.790861 3 8 4.790861 8 7 C 8 9.209139 9.790861 11 12 11 C 14.209139 11 16 9.209139 16 7 C 16 4.790861 14.209139 3 12 3 z M 3 6.59375 L 3 9.40625 L 7.5 13.90625 C 8.1 13.60625 8.79375 13.3875 9.59375 13.1875 L 3 6.59375 z M 9.59375 13.1875 L 17.40625 21 L 20 21 L 20 17 C 20 17 18.1 13 12 13 C 11.1 13 10.39375 13.0875 9.59375 13.1875 z M 7.5 13.90625 C 4.9 15.10625 4 17 4 17 L 4 21 L 14.59375 21 L 7.5 13.90625 z"/>
</svg>
